<svg height="512pt" viewBox="0 -34 512 512" width="512pt" xmlns="http://www.w3.org/2000/svg"><path d="m369.785156 89.027344-184.253906-2.910156c-102.332031 3.566406-176.996094 23.5625-176.996094 135.75 0 136.667968 110.796875 213.332031 247.464844 213.332031s247.464844-76.664063 247.464844-213.332031c0-95.632813-54.277344-124.253907-133.679688-132.839844zm0 0" fill="#dd352e"/><path d="m263.117188 14.191406-15.652344 62.609375s-68.265625-17.066406-93.863282-68.265625c0 0-7.605468 45.609375 41.761719 86.601563 3.507813 2.910156 2.363281 8.484375-1.996093 9.789062-19.996094 5.992188-56.84375 25.183594-31.234376 82.808594 0 0 25.601563-59.734375 93.867188-59.734375 0 0 59.734375 8.535156 68.265625 76.800781 0 0 45.332031-45.328125-6.175781-86.230469-3.714844-2.953124-2.195313-8.890624 2.449218-9.882812 24.34375-5.160156 74.117188-21.136719 80.527344-66.019531 0 0-110.933594 51.199219-119.464844 42.664062l15.042969-67.710937c1.039063-4.660156-2.507812-9.085938-7.289062-9.085938h-18.984375c-3.429688 0-6.417969 2.328125-7.253906 5.65625zm0 0" fill="#23a24d"/><g fill="#4d007e"><path d="m324.265625 213.332031c-.929687 0-1.859375-.152343-2.765625-.460937-3.078125-1.058594-5.289062-3.777344-5.699219-7.011719-7.226562-57.847656-54.988281-68.3125-60.492187-69.324219-61.0625.390625-84.367188 52.359375-85.332032 54.578125-1.347656 3.097657-4.414062 5.128907-7.800781 5.144531-.007812 0-.023437 0-.035156 0-3.371094 0-6.433594-1.972656-7.796875-5.058593-10.820312-24.355469-12.390625-45.226563-4.660156-62.046875 7.824218-17.03125 23.234375-26.050782 36.34375-30.78125-48.265625-42.742188-41.175782-89.222656-40.839844-91.230469.605469-3.652344 3.488281-6.492187 7.148438-7.039063 3.644531-.503906 7.253906 1.324219 8.902343 4.625 18.449219 36.898438 61.976563 55.09375 80.136719 61.289063l13.464844-53.871094c1.78125-7.160156 8.167968-12.144531 15.53125-12.144531h18.984375c4.882812 0 9.429687 2.183594 12.484375 5.992188 3.054687 3.804687 4.199218 8.71875 3.140625 13.480468l-12.730469 57.285156c19.027344-4.566406 65.613281-23.550781 105.242188-41.839843 2.832031-1.304688 6.160156-.957031 8.667968.90625 2.507813 1.867187 3.789063 4.949219 3.355469 8.046875-6.742187 47.179687-55.519531 65.433594-81.546875 71.867187 14.472656 12.902344 22.265625 27.527344 23.179688 43.542969 1.636718 28.714844-19.925782 50.640625-20.847657 51.550781-1.632812 1.621094-3.808593 2.5-6.035156 2.5zm-68.265625-93.867187c.402344 0 .800781.027344 1.203125.085937.597656.09375 54.128906 8.414063 71.339844 64.359375 3.351562-6.578125 6.089843-14.847656 5.554687-23.765625-.75-12.519531-7.929687-24.25-21.316406-34.882812-4.300781-3.40625-6.1875-8.859375-4.933594-14.21875 1.273438-5.433594 5.453125-9.53125 10.90625-10.691407 21.171875-4.488281 54.953125-15.617187 68.53125-42.027343-99.855468 44.902343-107.792968 36.96875-111.71875 33.042969-2.066406-2.058594-2.925781-5.035157-2.296875-7.886719l14.757813-66.414063h-16.839844l-15.445312 61.796875c-1.140626 4.574219-5.792969 7.359375-10.347657 6.214844-2.363281-.597656-47.832031-12.3125-79.574219-45.074219 4.734376 14.183594 14.652344 31.667969 34.996094 48.554688 4.042969 3.371094 5.902344 8.644531 4.863282 13.773437-1.050782 5.128907-4.820313 9.25-9.867188 10.761719-10.570312 3.164062-24.453125 9.761719-30.625 23.175781-3.925781 8.550781-4.308594 19.054688-1.160156 31.367188 13.542968-19.25 42.1875-48.171875 91.972656-48.171875zm33.355469-102.398438h.085937zm0 0"/><path d="m256 443.734375c-153.121094 0-256-89.15625-256-221.867187 0-127.164063 95.617188-141.148438 185.242188-144.265626 2.398437-.289062 4.648437.8125 6.324218 2.484376 3.308594 3.300781 6.246094 5.988281 9.238282 8.480468 4.054687 3.371094 5.914062 8.644532 4.867187 13.765625-1.050781 5.136719-4.832031 9.257813-9.867187 10.769531-10.570313 3.164063-24.457032 9.761719-30.625 23.175782-3.925782 8.550781-4.308594 19.054687-1.160157 31.367187 13.550781-19.257812 42.195313-48.179687 91.980469-48.179687.402344 0 .800781.027344 1.203125.085937.597656.09375 54.128906 8.414063 71.339844 64.359375 3.351562-6.578125 6.089843-14.847656 5.554687-23.765625-.75-12.519531-7.929687-24.25-21.324218-34.882812-4.300782-3.414063-6.1875-8.859375-4.933594-14.21875 1.273437-5.433594 5.453125-9.53125 10.90625-10.691407 10.257812-2.175781 29.882812-7.449218 46.300781-18.40625 1.664063-1.117187 3.671875-1.613281 5.65625-1.390624 69.871094 7.542968 141.296875 30.242187 141.296875 141.3125 0 132.710937-102.878906 221.867187-256 221.867187zm-73.804688-348.945313c-104.652343 4.105469-165.128906 26.757813-165.128906 127.078126 0 141.472656 120.003906 204.800781 238.933594 204.800781s238.933594-63.328125 238.933594-204.800781c0-77.757813-35.710938-113.859376-123.066406-124.015626-14.867188 9.335938-31.164063 14.769532-43.898438 17.894532 14.472656 12.910156 22.257812 27.535156 23.179688 43.546875 1.636718 28.714843-19.925782 50.636719-20.847657 51.546875-2.304687 2.304687-5.71875 3.082031-8.800781 2.042968-3.078125-1.058593-5.289062-3.78125-5.699219-7.015624-7.226562-57.839844-54.980469-68.308594-60.492187-69.324219-61.0625.390625-84.367188 52.359375-85.332032 54.578125-1.347656 3.097656-4.414062 5.128906-7.800781 5.144531-.007812 0-.023437 0-.035156 0-3.371094 0-6.433594-1.96875-7.796875-5.058594-10.820312-24.355469-12.390625-45.226562-4.660156-62.046875 7.832031-17.039062 23.253906-26.058594 36.359375-30.789062-1.269531-1.140625-2.542969-2.328125-3.847657-3.582032zm0 0"/><path d="m256 401.066406c-4.710938 0-8.535156-3.8125-8.535156-8.53125 0-4.722656 3.824218-8.535156 8.535156-8.535156 31.609375 0 138.007812-6.441406 180.128906-89.34375 2.132813-4.199219 7.273438-5.871094 11.46875-3.738281 4.199219 2.132812 5.878906 7.28125 3.746094 11.476562-31.394531 61.78125-104.421875 98.671875-195.34375 98.671875zm0 0"/><path d="m456.082031 273.074219c-.648437 0-1.304687-.074219-1.964843-.222657-4.589844-1.082031-7.429688-5.671874-6.347657-10.265624 2.988281-12.679688 4.496094-26.375 4.496094-40.71875 0-4.71875 3.824219-8.535157 8.535156-8.535157 4.710938 0 8.53125 3.816407 8.53125 8.535157 0 15.65625-1.664062 30.667968-4.957031 44.628906-.921875 3.925781-4.429688 6.578125-8.292969 6.578125zm0 0"/></g></svg>